<svg width="368" height="408" viewBox="0 0 368 408" fill="none" xmlns="http://www.w3.org/2000/svg">
<g filter="url(#filter0_d_1_3)">
<path d="M308.572 103.309C305.81 103.309 303.572 101.07 303.572 98.3086V84.2318C303.572 81.4704 305.81 79.2318 308.572 79.2318H335.867C338.628 79.2318 340.867 76.9933 340.867 74.2318V4.99999C340.867 2.23857 338.628 0 335.867 0H32.1285C29.3671 0 27.1285 2.23858 27.1285 5V74.2318C27.1285 76.9933 29.3671 79.2318 32.1285 79.2318H59.4222C62.1836 79.2318 64.4222 81.4704 64.4222 84.2318V98.3086C64.4222 101.07 62.1836 103.309 59.4222 103.309H44C21.9086 103.309 4 121.217 4 143.309V395C4 397.761 6.23858 400 9 400H359C361.761 400 364 397.761 364 395V143.309C364 121.217 346.091 103.309 324 103.309H308.572ZM84.8308 84.2318C84.8308 81.4704 87.0693 79.2318 89.8308 79.2318H278.163C280.925 79.2318 283.163 81.4704 283.163 84.2318V98.3086C283.163 101.07 280.925 103.309 278.163 103.309H89.8308C87.0693 103.309 84.8308 101.07 84.8308 98.3086V84.2318ZM343.591 378.333C343.591 381.095 341.353 383.333 338.591 383.333H29.4086C26.6472 383.333 24.4086 381.094 24.4086 378.333V144.975C24.4086 131.168 35.6015 119.975 49.4086 119.975H318.592C332.399 119.975 343.592 131.168 343.592 144.975L343.591 378.333Z" fill="black"/>
<path d="M302.912 281.673H64.9429C62.1815 281.673 59.9429 283.912 59.9429 286.673V294.274C59.9429 297.036 62.1815 299.274 64.9429 299.274H302.912C305.673 299.274 307.912 297.036 307.912 294.274V286.673C307.912 283.912 305.673 281.673 302.912 281.673Z" fill="black"/>
<path d="M302.912 330.358H64.9429C62.1815 330.358 59.9429 332.596 59.9429 335.358V342.959C59.9429 345.72 62.1815 347.959 64.9429 347.959H302.912C305.673 347.959 307.912 345.72 307.912 342.959V335.358C307.912 332.596 305.673 330.358 302.912 330.358Z" fill="black"/>
<path d="M282.114 249.27L290.747 154.491H315L313.184 175.042H299.856L298.543 189.952H310.949L308.937 210.503H296.531L294.939 228.395H308.266L306.366 249.27H282.114Z" fill="black"/>
<path d="M263.17 250.566C259.761 250.566 256.939 249.032 254.704 245.964C252.469 242.852 250.802 238.53 249.703 232.998C248.604 227.466 248.054 221.026 248.054 213.679C248.054 208.018 248.315 202.313 248.836 196.565C249.358 190.816 250.168 185.349 251.267 180.163C252.366 174.934 253.773 170.288 255.486 166.225C257.2 162.119 259.24 158.899 261.605 156.566C263.971 154.189 266.691 153 269.764 153C272.484 153 274.924 153.756 277.084 155.269C279.245 156.738 281.285 158.813 283.203 161.492L279.068 181.265C277.336 178.888 275.743 177.116 274.29 175.949C272.837 174.739 271.329 174.134 269.764 174.134C268.441 174.134 267.221 174.825 266.104 176.208C265.005 177.591 264.018 179.515 263.142 181.978C262.285 184.442 261.549 187.294 260.935 190.536C260.339 193.734 259.882 197.213 259.566 200.973C259.268 204.69 259.119 208.493 259.119 212.383C259.119 218.131 259.64 222.453 260.683 225.348C261.745 228.201 263.245 229.627 265.182 229.627C266.84 229.627 268.46 229.151 270.043 228.201C271.627 227.25 273.434 225.78 275.464 223.792V244.732C273.471 246.806 271.45 248.297 269.401 249.205C267.37 250.113 265.293 250.566 263.17 250.566Z" fill="black"/>
<path d="M203.097 249.27L223.885 154.491H237.94L241.376 249.27H230.731L230.451 231.507H217.934L214.441 249.27H203.097ZM221.93 211.281H230.116L229.697 184.053C229.678 181.935 229.66 179.839 229.641 177.764C229.623 175.69 229.623 173.723 229.641 171.865H229.473C229.194 173.853 228.887 175.798 228.551 177.7C228.235 179.601 227.881 181.546 227.49 183.534L221.93 211.281Z" fill="black"/>
<path d="M171.748 249.27L180.382 154.491H190.804C194.417 154.491 197.314 155.744 199.493 158.251C201.691 160.758 203.284 164.172 204.271 168.494C205.277 172.773 205.78 177.57 205.78 182.886C205.78 188.547 205.342 193.561 204.467 197.926C203.61 202.248 202.38 205.9 200.778 208.882C199.195 211.821 197.304 214.047 195.106 215.559C192.927 217.072 190.515 217.828 187.87 217.828H185.467L182.673 249.27H171.748ZM187.423 197.083H189.183C190.338 197.083 191.334 196.5 192.173 195.333C193.029 194.166 193.691 192.567 194.156 190.536C194.622 188.504 194.855 186.214 194.855 183.664C194.855 181.503 194.557 179.558 193.961 177.829C193.383 176.057 192.424 175.171 191.083 175.171H189.434L187.423 197.083Z" fill="black"/>
<path d="M151.212 250.566C149.181 250.566 147.244 250.026 145.4 248.946C143.574 247.865 142 246.331 140.678 244.343V221.653C142.168 223.771 143.919 225.651 145.931 227.293C147.961 228.935 149.833 229.757 151.547 229.757C152.236 229.757 152.841 229.584 153.363 229.238C153.885 228.892 154.322 228.395 154.676 227.747C155.03 227.099 155.291 226.299 155.459 225.348C155.645 224.354 155.738 223.252 155.738 222.042C155.738 220.443 155.533 218.952 155.123 217.569C154.713 216.186 154.155 214.824 153.447 213.485C152.758 212.102 151.994 210.611 151.156 209.012C149.908 206.635 148.809 204.149 147.859 201.556C146.927 198.963 146.201 196.132 145.679 193.064C145.176 189.952 144.925 186.473 144.925 182.626C144.925 178.348 145.27 174.415 145.959 170.828C146.648 167.241 147.626 164.129 148.892 161.492C150.178 158.813 151.705 156.76 153.475 155.334C155.263 153.864 157.237 153.13 159.398 153.13C161.596 153.13 163.72 153.735 165.769 154.945C167.836 156.155 169.718 157.862 171.413 160.066L167.641 179.32C166.337 177.808 164.968 176.489 163.533 175.366C162.118 174.199 160.777 173.615 159.51 173.615C158.728 173.615 158.094 173.853 157.61 174.328C157.126 174.761 156.753 175.344 156.492 176.079C156.232 176.77 156.045 177.527 155.934 178.348C155.84 179.169 155.794 179.969 155.794 180.746C155.794 182.086 155.915 183.383 156.157 184.636C156.418 185.846 156.874 187.208 157.526 188.72C158.178 190.19 159.1 191.962 160.292 194.036C161.801 196.629 163.03 199.266 163.98 201.945C164.949 204.625 165.657 207.456 166.104 210.438C166.551 213.377 166.775 216.618 166.775 220.162C166.775 224.873 166.43 229.108 165.741 232.868C165.052 236.628 164.046 239.827 162.723 242.463C161.401 245.099 159.771 247.109 157.834 248.492C155.915 249.875 153.708 250.566 151.212 250.566Z" fill="black"/>
<path d="M115.895 250.566C112.411 250.566 109.505 249.054 107.177 246.028C104.867 243.003 103.126 238.768 101.952 233.322C100.779 227.833 100.192 221.415 100.192 214.068C100.192 209.141 100.387 204.236 100.779 199.352C101.17 194.468 101.766 189.758 102.567 185.22C103.368 180.638 104.374 176.403 105.584 172.513C106.795 168.624 108.22 165.231 109.859 162.335C111.499 159.396 113.352 157.106 115.42 155.463C117.506 153.821 119.816 153 122.349 153C127.378 153 131.187 156.328 133.777 162.984C136.384 169.639 137.688 178.477 137.688 189.498C137.688 194.425 137.493 199.352 137.102 204.279C136.729 209.163 136.152 213.895 135.369 218.476C134.605 223.014 133.628 227.228 132.435 231.118C131.243 235.008 129.837 238.422 128.216 241.361C126.614 244.256 124.789 246.525 122.74 248.168C120.691 249.767 118.409 250.566 115.895 250.566ZM116.845 229.627C117.757 229.627 118.633 229.151 119.471 228.201C120.309 227.25 121.092 225.91 121.818 224.181C122.563 222.409 123.224 220.313 123.802 217.893C124.398 215.43 124.91 212.728 125.338 209.789C125.767 206.807 126.093 203.631 126.316 200.26C126.54 196.889 126.652 193.388 126.652 189.758C126.652 184.874 126.205 181.027 125.311 178.218C124.416 175.409 123.122 174.004 121.427 174.004C120.402 174.004 119.443 174.545 118.549 175.625C117.655 176.706 116.826 178.197 116.062 180.098C115.317 182 114.647 184.226 114.05 186.775C113.454 189.325 112.942 192.091 112.514 195.073C112.104 198.056 111.787 201.146 111.564 204.344C111.359 207.542 111.256 210.74 111.256 213.938C111.256 217.353 111.461 220.227 111.871 222.561C112.3 224.894 112.924 226.666 113.743 227.877C114.581 229.043 115.615 229.627 116.845 229.627Z" fill="black"/>
<path d="M53 249.27L61.6337 154.491H74.3467L82.3377 218.217H82.5892C82.6823 216.316 82.8127 213.895 82.9804 210.956C83.1666 208.018 83.3622 205.035 83.5671 202.01C83.7907 198.985 83.9956 196.37 84.1818 194.166L87.8421 154.491H97.5654L88.9317 249.27H76.2187L68.1439 182.626H67.9203C67.9017 183.491 67.8458 184.982 67.7527 187.1C67.6596 189.174 67.5385 191.551 67.3895 194.231C67.2404 196.91 67.0728 199.633 66.8865 202.399C66.7189 205.122 66.5326 207.564 66.3277 209.725L62.7234 249.27H53Z" fill="black"/>
</g>
<defs>
<filter id="filter0_d_1_3" x="0" y="0" width="368" height="408" filterUnits="userSpaceOnUse" color-interpolation-filters="sRGB">
<feFlood flood-opacity="0" result="BackgroundImageFix"/>
<feColorMatrix in="SourceAlpha" type="matrix" values="0 0 0 0 0 0 0 0 0 0 0 0 0 0 0 0 0 0 127 0" result="hardAlpha"/>
<feOffset dy="4"/>
<feGaussianBlur stdDeviation="2"/>
<feComposite in2="hardAlpha" operator="out"/>
<feColorMatrix type="matrix" values="0 0 0 0 0 0 0 0 0 0 0 0 0 0 0 0 0 0 0.25 0"/>
<feBlend mode="normal" in2="BackgroundImageFix" result="effect1_dropShadow_1_3"/>
<feBlend mode="normal" in="SourceGraphic" in2="effect1_dropShadow_1_3" result="shape"/>
</filter>
</defs>
</svg>
